<svg xmlns="http://www.w3.org/2000/svg" xmlns:xlink="http://www.w3.org/1999/xlink" version="1.1" x="0px" y="0px" viewBox="-25 -25 150 150" fill="#fff" stroke="#fff" enable-background="new 0 0 100 100" xml:space="preserve"><g display="none"><g display="inline"><path d="M84.217,20.603l-4.485,4.485c5.575,6.724,8.937,15.345,8.937,24.742c0,3.441-0.561,6.881-1.299,10.086    c-1.697,7.366-7.36,15.284-11.661,19.121c-6.544,5.838-15.948,9.563-25.883,9.563c-9.3,0-17.837-3.055-24.531-9.075l-4.696,4.696    C28.484,90.933,38.685,95,49.826,95c24.907,0,45.171-20.263,45.171-45.171C94.997,38.688,90.929,28.487,84.217,20.603z"/></g></g><g><g><path d="M72.299,22.368"/><path d="M74.341,20.326"/><path d="M69.194,22.368c0.008-0.076,0.023-0.149,0.023-0.227c0-1.185-0.969-2.154-2.154-2.154h-1.814    c-1.185,0-2.154,0.969-2.154,2.154c0,0.078,0.015,0.151,0.023,0.227l-4.498,0.253c-2.254,0-2.214,0.762-2.214,2.015    s4.258,6.589,6.512,6.589c0.709,0,0.038-2.323,0.583-2.558c0.083,0.014,2.215-0.109,2.3-0.095l6.499-6.203H69.194z"/><path d="M28.173,46.579h-2.161c-1.202,0-2.206,0.798-2.544,1.889c-0.686-0.551-4.245-3.465-4.732-4.975    c-0.038-0.119,0.845-2.545,1.868-3.452c0,0,2.185,0.184,2.977,0c0.546-0.127,4.593-2.367,6.369-5.24    c0.54-0.874,3.062-6.473,3.477-7.413c0.302-0.685-0.587-2.663-1.518-2.225c-0.666,0.314-1.73,2.178-2.403,2.476    c-0.842,0.372-2.686,0.558-3.458,0.057c-3.275-2.127,0.823-3.486,2.844-2.419c0.896,0.474,3.01-4.284,1.811-4.284    c-1.644,0-6.575,0-6.575,0c6.877-5.442,15.948-9.563,25.883-9.563c9.207,0,17.666,2.994,24.33,8.895l4.692-4.692    C71.177,9.026,61.056,5.03,50.011,5.03c-24.907,0-45.171,20.263-45.171,45.171c0,11.044,3.996,21.166,10.604,29.021l4.485-4.485    c-5.472-6.694-8.761-15.237-8.761-24.536c0-3.441,0.455-6.907,1.299-10.086c0.178,0.034,0.359-0.073,0.546-0.073h0.535v3.078    c0.746,1.293,1.058,1.282,2.506,2.38c0.177,0.134,5.705,4.875,5.705,4.875c0.069,0.069,0.17,0.122,0.288,0.166    c-0.577,0.8-1.13,1.986-1.13,3.611c0,4.762,3.75,11.567,5.405,11.567l0.368,2.256l12.326-12.326l-7.135-7.521    C30.903,47.137,29.567,46.579,28.173,46.579z"/></g><g><path fill="none" d="M23.461,77.662c0.77,0.83,1.287,1.374,1.287,1.374c0.179,0.168,0.365,0.325,0.547,0.488l1.862-1.862H23.461z"/></g></g><g display="none"><g display="inline" opacity="0.25"><path d="M84.191,20.629L20.649,84.171c17.711,15.178,44.398,14.395,61.168-2.374C98.586,65.027,99.369,38.34,84.191,20.629z"/></g></g><g><path fill="#fff" d="M84.813,47.736l7.708-3.149L86.61,30.12l-7.266,2.969l6.448-6.448c0.974-0.974,0.974-2.568,0-3.542   s-2.568-0.974-3.542,0l-60,60c-0.974,0.974-0.974,2.568,0,3.542s2.568,0.974,3.542,0l6.635-6.635l-2.71,6.453l14.409,6.051   l3.337-7.947c3.244,0.512,6.492,0.521,9.66,0.067l3.251,7.959l14.469-5.909l-3.227-7.899c2.618-1.886,4.965-4.17,6.958-6.816   c0,0,7.816,3.282,7.816,3.282l6.051-14.408l-7.724-3.244C85.26,54.285,85.276,50.966,84.813,47.736z M62.711,56.619   c-2.191,5.218-7.924,7.866-13.234,6.337l13.648-13.648C63.798,51.641,63.725,54.205,62.711,56.619z"/></g></svg>