<svg xmlns="http://www.w3.org/2000/svg" xmlns:xlink="http://www.w3.org/1999/xlink" version="1.1" x="0px" y="0px" viewBox="-25 -25 150 150" enable-background="new 0 0 100 100" xml:space="preserve" fill="#fff"><path d="M63.811,35.748c-1.932-1.932-5.063-1.932-6.994,0L6.448,86.115c-1.932,1.932-1.932,5.064,0,6.994l0.424,0.424  c1.932,1.932,5.063,1.932,6.994,0l50.368-50.367c1.932-1.932,1.932-5.064,0-6.996L63.811,35.748z"/><path d="M93.669,14.238c-1.437-0.209-2.612-0.381-2.612-0.381l-4.35-0.632c-0.484-0.071-1.059-0.487-1.273-0.926l-1.944-3.938  c0,0-0.525-1.066-1.169-2.367c-0.643-1.305-1.694-1.305-2.338,0c-0.644,1.301-1.168,2.367-1.168,2.367l-1.944,3.938  c-0.216,0.44-0.79,0.856-1.274,0.926l-4.346,0.631c0,0-1.175,0.172-2.613,0.381c-1.438,0.209-1.762,1.209-0.722,2.223  c1.039,1.014,1.892,1.844,1.892,1.844l3.145,3.064c0.35,0.342,0.568,1.018,0.486,1.5l-0.742,4.328c0,0-0.2,1.172-0.446,2.604  c-0.245,1.43,0.606,2.048,1.892,1.373c1.285-0.675,2.338-1.23,2.338-1.23l3.888-2.043c0.433-0.227,1.142-0.227,1.575,0l3.887,2.044  c0,0,1.052,0.554,2.338,1.23c1.286,0.676,2.136,0.057,1.891-1.373c-0.246-1.432-0.445-2.604-0.445-2.604l-0.742-4.328  c-0.083-0.482,0.135-1.158,0.486-1.5l3.144-3.064c0,0,0.853-0.83,1.892-1.844C95.432,15.447,95.105,14.447,93.669,14.238z"/><path d="M27.229,17.349l2.694,2.629c0.301,0.293,0.489,0.871,0.418,1.283l-0.636,3.711c0,0-0.173,1.003-0.384,2.23  c-0.21,1.227,0.519,1.756,1.622,1.178c1.101-0.58,2.004-1.053,2.004-1.053l3.33-1.752c0.373-0.195,0.981-0.195,1.353,0l3.331,1.752  c0,0,0.902,0.473,2.003,1.053c1.102,0.578,1.832,0.049,1.622-1.178c-0.211-1.226-0.383-2.23-0.383-2.23l-0.637-3.711  c-0.071-0.412,0.116-0.99,0.417-1.283l2.695-2.629c0,0,0.728-0.709,1.62-1.58c0.892-0.869,0.613-1.726-0.618-1.906  c-1.232-0.178-2.239-0.324-2.239-0.324l-3.724-0.541c-0.415-0.061-0.907-0.418-1.093-0.793l-1.666-3.377c0,0-0.45-0.912-1.001-2.027  c-0.552-1.117-1.453-1.117-2.005,0c-0.551,1.115-1.001,2.027-1.001,2.027l-1.666,3.377c-0.186,0.375-0.678,0.732-1.093,0.793  l-3.726,0.541c0,0-1.008,0.146-2.24,0.324c-1.231,0.179-1.509,1.037-0.618,1.906C26.499,16.64,27.229,17.349,27.229,17.349z"/><path d="M92.87,60.227c-1.231-0.179-2.239-0.326-2.239-0.326l-3.724-0.539c-0.415-0.063-0.908-0.42-1.093-0.795l-1.666-3.375  c0,0-0.45-0.914-1.002-2.029c-0.551-1.117-1.453-1.117-2.004,0c-0.552,1.115-1.002,2.029-1.002,2.029l-1.666,3.375  c-0.186,0.375-0.678,0.731-1.094,0.795L73.656,59.9c0,0-1.008,0.147-2.24,0.326c-1.23,0.178-1.509,1.037-0.618,1.905  c0.892,0.869,1.621,1.58,1.621,1.58l2.694,2.627c0.302,0.293,0.488,0.871,0.418,1.285l-0.637,3.709c0,0-0.172,1.005-0.384,2.231  c-0.21,1.228,0.519,1.756,1.622,1.179c1.102-0.58,2.004-1.056,2.004-1.056l3.33-1.752c0.373-0.192,0.981-0.192,1.354,0l3.33,1.752  c0,0,0.901,0.476,2.004,1.056c1.101,0.577,1.832,0.049,1.621-1.179c-0.211-1.226-0.383-2.231-0.383-2.231l-0.637-3.709  c-0.07-0.414,0.116-0.992,0.417-1.285l2.695-2.627c0,0,0.728-0.711,1.62-1.58C94.38,61.264,94.102,60.406,92.87,60.227z"/></svg>