<svg xmlns="http://www.w3.org/2000/svg" xmlns:xlink="http://www.w3.org/1999/xlink" version="1.1" x="0px" fill="#fff" y="0px" viewBox="0 0 100 125" enable-background="new 0 0 100 100" xml:space="preserve"><g display="none"><path display="inline" d="M66.031,72.582h-8.119l-0.475-1.519c-0.604-1.938-2.603-3.29-4.859-3.29H23.346l-0.544-1.357   c-0.472-1.174-0.71-2.404-0.71-3.656c0-4.874,3.567-8.929,8.228-9.692c1.01-8.686,8.412-15.45,17.364-15.45   c6.936,0,13.236,4.202,15.997,10.442c0.775-0.152,1.561-0.229,2.352-0.229c6.824,0,12.375,5.551,12.375,12.375   S72.855,72.582,66.031,72.582z M60.92,68.257h5.111c4.441,0,8.054-3.612,8.054-8.051c0-4.44-3.612-8.052-8.054-8.052   c-0.982,0-1.958,0.185-2.899,0.55l-2.18,0.844L60.28,51.31c-1.656-5.516-6.837-9.368-12.598-9.368   c-7.24,0-13.133,5.877-13.158,13.111l0.001,0.069v2.286l-2.436-0.138c-0.059-0.004-0.117-0.01-0.177-0.01   c-3.032,0-5.499,2.467-5.499,5.499c0,0.23,0.015,0.46,0.043,0.689h26.12C56.118,63.449,59.341,65.362,60.92,68.257z"/></g><g display="none"><path display="inline" d="M61.95,61.416H11.574c-1.194,0-2.162-0.967-2.162-2.161c0-1.193,0.967-2.162,2.162-2.162H61.95   c3.031,0,5.499-2.467,5.499-5.498c0-3.031-2.468-5.498-5.499-5.498s-5.497,2.467-5.497,5.498c0,1.195-0.969,2.162-2.162,2.162   c-1.194,0-2.162-0.967-2.162-2.162c0-5.415,4.406-9.821,9.821-9.821s9.821,4.406,9.821,9.821S67.365,61.416,61.95,61.416z"/><path display="inline" d="M48.181,83.716c-5.416,0-9.821-4.406-9.821-9.822c0-1.195,0.968-2.162,2.162-2.162   c1.194,0,2.162,0.967,2.162,2.162c0,3.031,2.466,5.497,5.498,5.497c3.032,0,5.498-2.466,5.498-5.497s-2.466-5.499-5.498-5.499   H21.266c-1.194,0-2.161-0.968-2.161-2.16c0-1.194,0.967-2.162,2.161-2.162h26.915c5.416,0,9.821,4.406,9.821,9.821   C58.002,79.31,53.597,83.716,48.181,83.716z"/><path display="inline" d="M78.213,61.41c-1.194,0-2.163-0.967-2.163-2.16c0-1.194,0.969-2.163,2.163-2.163   c4.438,0,8.052-3.611,8.052-8.051c0-4.439-3.613-8.051-8.052-8.051c-0.984,0-1.961,0.184-2.902,0.549l-2.179,0.843l-0.671-2.238   c-1.656-5.516-6.836-9.368-12.598-9.368c-7.226,0-13.109,5.853-13.158,13.067l0.001,0.114v2.298l-2.429-0.149   c-0.061-0.004-0.122-0.01-0.183-0.01c-3.032,0-5.498,2.466-5.498,5.498c0,1.193-0.968,2.162-2.162,2.162   c-1.195,0-2.162-0.969-2.162-2.162c0-4.873,3.567-8.927,8.226-9.692c1.01-8.685,8.413-15.449,17.365-15.449   c6.934,0,13.237,4.202,15.996,10.442c0.775-0.152,1.562-0.229,2.354-0.229c6.823,0,12.376,5.551,12.376,12.374   C90.589,55.859,85.036,61.41,78.213,61.41z"/></g><g display="none"><g display="inline"><path d="M48.753,76.345c-0.109,0-0.22-0.008-0.33-0.025c-1.002-0.155-1.762-0.984-1.828-1.995l-1.225-18.66h-4.417    c-0.675,0-1.311-0.316-1.72-0.854c-0.409-0.536-0.543-1.234-0.363-1.884l4.949-17.895c0.259-0.937,1.112-1.586,2.083-1.586h10.043    c0.672,0,1.307,0.313,1.716,0.846c0.408,0.533,0.547,1.227,0.373,1.875l-2.35,8.766l3.623-0.001l0,0    c0.715,0,1.382,0.353,1.785,0.942c0.402,0.589,0.489,1.339,0.229,2.005l-10.556,27.09C50.439,75.807,49.632,76.345,48.753,76.345z     M43.794,51.34h3.601c1.138,0,2.083,0.884,2.157,2.021l0.72,10.969l5.874-15.074l-3.277,0.001h-0.001    c-0.672,0-1.305-0.312-1.715-0.846c-0.409-0.533-0.547-1.227-0.373-1.875l2.349-8.767h-5.581L43.794,51.34z"/></g></g><g display="none"><path display="inline" d="M65.944,59.247h-8.121l-0.473-1.519c-0.606-1.937-2.604-3.29-4.86-3.29c-1.194,0-2.163-0.968-2.163-2.162   c0-1.192,0.968-2.161,2.163-2.161c3.54,0,6.763,1.913,8.343,4.809h5.111c4.438,0,8.051-3.612,8.051-8.052   c0-4.439-3.612-8.052-8.051-8.052c-0.984,0-1.959,0.185-2.9,0.55l-2.18,0.843l-0.672-2.237c-1.657-5.516-6.838-9.369-12.599-9.369   c-7.24,0-13.133,5.878-13.157,13.112l0,0.069v2.287l-2.435-0.138c-0.059-0.004-0.118-0.01-0.178-0.01   c-3.031,0-5.498,2.466-5.498,5.498c0,0.7,0.134,1.388,0.398,2.045c0.446,1.106-0.091,2.366-1.199,2.812   c-1.108,0.444-2.367-0.092-2.812-1.198c-0.471-1.174-0.711-2.404-0.711-3.66c0-4.873,3.568-8.928,8.229-9.692   c1.009-8.686,8.411-15.449,17.363-15.449c6.935,0,13.236,4.202,15.996,10.442c0.777-0.152,1.562-0.229,2.354-0.229   c6.823,0,12.375,5.552,12.375,12.375C78.319,53.695,72.768,59.247,65.944,59.247z"/><g display="inline"><path d="M37.934,85.455c-0.16,0-0.322-0.019-0.484-0.056c-1.018-0.233-1.723-1.16-1.676-2.202l0.551-12.404h-4.181    c-0.672,0-1.306-0.312-1.715-0.846c-0.409-0.532-0.546-1.226-0.373-1.875l4.38-16.349c0.253-0.945,1.11-1.602,2.088-1.602h6.44    c0.672,0,1.306,0.312,1.715,0.846c0.409,0.534,0.547,1.227,0.374,1.876l-2.349,8.764h3.623h0c0.727,0,1.405,0.365,1.806,0.973    c0.399,0.607,0.468,1.375,0.18,2.044l-8.395,19.522C39.571,84.953,38.781,85.455,37.934,85.455z M34.961,66.47h3.624    c0.589,0,1.154,0.241,1.562,0.667c0.408,0.426,0.624,1.001,0.597,1.591l-0.126,2.847l2.426-5.643h-3.157h0    c-0.672,0-1.306-0.312-1.715-0.846c-0.409-0.533-0.546-1.227-0.373-1.875l2.349-8.767h-1.964L34.961,66.47z"/></g></g><g display="none"><path display="inline" d="M41.256,61.366c-0.678-0.049-1.354-0.071-2.029-0.065h-0.191c-0.369,0.005-0.737,0.022-1.105,0.046   l-2.737,3.268l0.006,0.006c-1,1.076-1.618,2.514-1.618,4.1c0,3.326,2.698,6.023,6.025,6.023c3.326,0,6.024-2.697,6.024-6.023   c0-1.706-0.711-3.242-1.85-4.339L41.256,61.366z"/><path display="inline" d="M65.727,70.423h-8.121l-0.473-1.518c-0.606-1.938-2.604-3.291-4.861-3.291   c-1.193,0-2.162-0.968-2.162-2.162c0-1.193,0.968-2.162,2.162-2.162c3.541,0,6.764,1.915,8.343,4.808h5.112   c4.438,0,8.051-3.611,8.051-8.05c0-4.439-3.612-8.052-8.051-8.052c-0.983,0-1.959,0.185-2.901,0.549l-2.179,0.843l-0.673-2.237   c-1.657-5.516-6.837-9.368-12.597-9.368c-7.24,0-13.134,5.877-13.158,13.112l0.001,0.068v2.286l-2.435-0.138   c-0.059-0.004-0.118-0.01-0.178-0.01c-3.032,0-5.499,2.467-5.499,5.498c0,0.699,0.135,1.387,0.399,2.045   c0.445,1.107-0.091,2.367-1.199,2.813c-1.107,0.445-2.367-0.093-2.812-1.2c-0.472-1.173-0.711-2.404-0.711-3.658   c0-4.872,3.567-8.928,8.228-9.691c1.01-8.686,8.412-15.45,17.364-15.45c6.934,0,13.237,4.202,15.997,10.442   c0.775-0.152,1.562-0.229,2.354-0.229c6.824,0,12.374,5.551,12.374,12.375C78.101,64.871,72.551,70.423,65.727,70.423z"/></g><g display="none"><path display="inline" d="M34.23,63.029c-0.508-0.035-1.016-0.053-1.521-0.049h-0.144c-0.277,0.004-0.552,0.018-0.829,0.035   l-2.053,2.449l0.005,0.006c-0.751,0.808-1.213,1.885-1.213,3.073c0,2.496,2.023,4.519,4.518,4.519c2.496,0,4.518-2.022,4.518-4.519   c0-1.278-0.533-2.43-1.387-3.252L34.23,63.029z"/><path display="inline" d="M51.37,67.762l-1.197-0.753l1.197-0.752c1.011-0.634,1.315-1.97,0.681-2.98   c-0.636-1.01-2.106-1.315-3.117-0.681L48,63.098v-1.231c0-1.193-0.806-2.162-2-2.162s-2,0.969-2,2.162v1.23l-0.824-0.501   c-1.011-0.635-2.357-0.33-2.993,0.681c-0.635,1.011-0.337,2.347,0.673,2.98l1.194,0.752l-1.199,0.753   c-1.011,0.636-1.316,1.969-0.681,2.979c0.411,0.655,1.113,1.014,1.832,1.014c0.393,0,0.817-0.107,1.174-0.333L44,70.921v1.231   c0,1.193,0.806,2.16,2,2.16s2-0.967,2-2.16V70.92l0.934,0.502c0.357,0.226,0.823,0.333,1.216,0.333   c0.719,0,1.456-0.358,1.867-1.014C52.651,69.73,52.381,68.397,51.37,67.762z"/><path display="inline" d="M65.958,45.673c-0.791,0-1.577,0.077-2.354,0.229c-2.76-6.241-9.061-10.442-15.997-10.442   c-8.952,0-16.354,6.764-17.364,15.45c-4.66,0.764-8.228,4.819-8.228,9.691c0,1.254,0.24,2.485,0.712,3.658   c0.445,1.107,1.705,1.646,2.812,1.2c1.107-0.446,1.645-1.706,1.199-2.813c-0.265-0.658-0.398-1.346-0.398-2.045   c0-3.031,2.466-5.498,5.498-5.498c0.06,0,0.119,0.006,0.178,0.01l2.436,0.138v-2.286l-0.001-0.068   c0.024-7.235,5.918-13.112,13.157-13.112c5.762,0,10.942,3.852,12.598,9.368l0.672,2.237l2.179-0.843   c0.942-0.365,1.918-0.55,2.901-0.55c4.439,0,8.052,3.612,8.052,8.052c0,4.438-3.612,8.05-8.052,8.05H60.8h-3.436H57   c-1.193,0-2.161,0.97-2.161,2.164c0,1.193,0.968,2.161,2.161,2.161h0.364H60.8h5.158c6.823,0,12.374-5.552,12.374-12.375   C78.332,51.224,72.781,45.673,65.958,45.673z"/></g><g display="none"><g display="inline"><path d="M65.836,69.694h-8.122l-0.474-1.517c-0.605-1.938-2.604-3.292-4.859-3.292c-1.194,0-2.163-0.967-2.163-2.161    c0-1.193,0.968-2.16,2.163-2.16c3.54,0,6.762,1.913,8.342,4.808h5.113c4.438,0,8.049-3.612,8.049-8.052    c0-4.44-3.611-8.051-8.049-8.051c-0.984,0-1.96,0.184-2.902,0.549l-2.179,0.844l-0.674-2.238    c-1.655-5.516-6.836-9.368-12.596-9.368c-7.24,0-13.133,5.878-13.158,13.112l0.001,0.068v2.286l-2.436-0.138    c-0.058-0.004-0.118-0.01-0.177-0.01c-3.032,0-5.498,2.467-5.498,5.498c0,0.699,0.134,1.388,0.398,2.045    c0.445,1.108-0.091,2.367-1.199,2.812c-1.108,0.444-2.367-0.092-2.812-1.198c-0.472-1.174-0.71-2.403-0.71-3.659    c0-4.873,3.567-8.928,8.228-9.692c1.01-8.686,8.412-15.449,17.364-15.449c6.934,0,13.236,4.201,15.998,10.441    c0.775-0.152,1.562-0.229,2.354-0.229c6.822,0,12.373,5.551,12.373,12.375C78.209,64.144,72.658,69.694,65.836,69.694z"/></g><path display="inline" d="M45.564,67.901l-2.566-1.612l2.566-1.613c1.011-0.635,1.315-1.969,0.68-2.981   c-0.635-1.01-2.017-1.314-3.028-0.681L41,62.376v-2.943c0-1.194-0.807-2.162-2-2.162c-1.194,0-2,0.968-2,2.162v2.943l-2.282-1.362   c-1.011-0.634-2.402-0.329-3.037,0.681c-0.635,1.013-0.359,2.347,0.651,2.981l2.552,1.613l-2.573,1.612   c-1.011,0.636-1.319,1.97-0.684,2.98c0.411,0.654,1.112,1.013,1.831,1.013c0.393,0,0.903-0.107,1.261-0.331L37,70.201v2.944   c0,1.194,0.806,2.161,2,2.161c1.193,0,2-0.967,2-2.161v-2.944l2.216,1.362c0.357,0.224,0.779,0.331,1.172,0.331   c0.719,0,1.434-0.358,1.844-1.013C46.868,69.871,46.575,68.537,45.564,67.901z"/></g><g display="none"><g display="inline"><path d="M65.741,69.698h-8.118l-0.476-1.517c-0.604-1.938-2.604-3.291-4.859-3.291c-1.194,0-2.162-0.968-2.162-2.163    c0-1.192,0.968-2.161,2.162-2.161c3.541,0,6.763,1.912,8.343,4.808h5.11c4.44,0,8.053-3.611,8.053-8.052    c0-4.438-3.612-8.05-8.053-8.05c-0.983,0-1.96,0.185-2.898,0.549l-2.18,0.844l-0.672-2.238c-1.658-5.516-6.839-9.369-12.599-9.369    c-7.239,0-13.131,5.878-13.157,13.111l0.001,0.071v2.296l-2.429-0.147c-0.061-0.005-0.122-0.011-0.184-0.011    c-3.032,0-5.498,2.466-5.498,5.498c0,0.699,0.134,1.389,0.398,2.046c0.446,1.108-0.091,2.366-1.199,2.812    c-1.108,0.444-2.367-0.092-2.812-1.2c-0.471-1.172-0.71-2.403-0.71-3.658c0-4.873,3.568-8.928,8.228-9.692    c1.01-8.686,8.411-15.449,17.363-15.449c6.934,0,13.236,4.202,15.998,10.442c0.775-0.152,1.562-0.229,2.352-0.229    c6.824,0,12.376,5.551,12.376,12.374C78.117,64.146,72.565,69.698,65.741,69.698z"/></g><circle display="inline" cx="39.041" cy="59.62" r="2.161"/><circle display="inline" cx="39.041" cy="66.506" r="2.161"/><circle display="inline" cx="39.041" cy="73.394" r="2.161"/><circle display="inline" cx="33.711" cy="63.063" r="2.161"/><circle display="inline" cx="33.711" cy="69.951" r="2.161"/><circle display="inline" cx="44.67" cy="63.063" r="2.161"/><circle display="inline" cx="44.67" cy="69.951" r="2.161"/></g><g display="none"><path display="inline" d="M73.368,42.097c-0.79,0-1.577,0.077-2.353,0.229c-2.761-6.241-9.062-10.442-15.997-10.442   c-7.412,0-13.757,4.639-16.295,11.164h0c-8.551,0.429-15.504,7.028-16.48,15.426c-4.66,0.765-8.227,4.82-8.227,9.692   c0,1.255,0.239,2.486,0.71,3.658l0.545,1.354h29.23c2.257,0,4.255,1.354,4.86,3.291l0.474,1.519h8.122   c6.408,0,11.692-4.896,12.313-11.144c0,0.001,0,0.001,0,0.003h3.097c6.823,0,12.374-5.551,12.374-12.376   C85.742,47.648,80.191,42.097,73.368,42.097z M57.958,73.663h-5.112c-1.579-2.895-4.802-4.809-8.343-4.809H18.384   c-0.029-0.227-0.044-0.457-0.044-0.689c0-3.032,2.466-5.497,5.499-5.497c0.06,0,0.119,0.005,0.178,0.008l2.434,0.141v-2.289   L26.45,60.41c0.052-7.211,5.935-13.063,13.159-13.063c5.76,0,10.94,3.852,12.596,9.368l0.672,2.239l2.179-0.845   c0.943-0.364,1.92-0.549,2.902-0.549c4.439,0,8.052,3.61,8.052,8.051C66.01,70.051,62.397,73.663,57.958,73.663z M73.368,62.523   h-3.426c-1.376-5.335-6.227-9.285-11.984-9.285c-0.791,0-1.578,0.074-2.354,0.228c-2.262-5.115-6.904-8.858-12.323-10.043   c0.001,0,0.002,0.001,0.003,0.001c2.174-4.278,6.616-7.217,11.734-7.217c5.761,0,10.94,3.853,12.598,9.368l0.672,2.237l2.18-0.843   c0.94-0.364,1.916-0.549,2.9-0.549c4.438,0,8.051,3.611,8.051,8.05C81.419,58.911,77.807,62.523,73.368,62.523z"/></g><g display="none"><g display="inline"><path d="M65.883,65.017h-8.122l-0.474-1.519c-0.603-1.937-2.602-3.29-4.86-3.29c-1.193,0-2.162-0.967-2.162-2.162    c0-1.192,0.968-2.162,2.162-2.162c3.543,0,6.765,1.913,8.344,4.809h5.112c4.439,0,8.053-3.611,8.053-8.05    c0-4.44-3.613-8.053-8.053-8.053c-0.985,0-1.96,0.186-2.901,0.549l-2.178,0.844l-0.673-2.238    c-1.658-5.516-6.839-9.369-12.599-9.369c-7.24,0-13.134,5.879-13.157,13.114v0.067v2.298l-2.428-0.149    c-0.061-0.004-0.123-0.011-0.184-0.011c-3.032,0-5.498,2.468-5.498,5.498c0,0.699,0.134,1.389,0.398,2.046    c0.445,1.107-0.092,2.366-1.2,2.812c-1.108,0.444-2.367-0.092-2.812-1.2c-0.472-1.172-0.71-2.403-0.71-3.658    c0-4.873,3.567-8.928,8.228-9.692c1.01-8.686,8.412-15.449,17.363-15.449c6.934,0,13.236,4.202,15.998,10.442    c0.773-0.152,1.561-0.229,2.353-0.229c6.823,0,12.374,5.552,12.374,12.376C78.257,59.465,72.706,65.017,65.883,65.017z"/></g><g display="inline"><path d="M40.306,80.042c-0.185,0-0.373-0.024-0.56-0.074c-1.154-0.309-1.838-1.494-1.53-2.646l6.22-23.26    c0.308-1.155,1.494-1.839,2.647-1.532c1.153,0.31,1.838,1.496,1.53,2.648l-6.22,23.26C42.134,79.404,41.26,80.042,40.306,80.042z"/></g><g display="inline"><path d="M33.352,80.042c-0.186,0-0.373-0.024-0.56-0.074c-1.154-0.309-1.838-1.494-1.53-2.646l6.22-23.26    c0.308-1.155,1.494-1.839,2.646-1.532c1.154,0.31,1.839,1.496,1.531,2.648l-6.22,23.26C35.18,79.404,34.307,80.042,33.352,80.042z    "/></g><g display="inline"><path d="M26.397,80.042c-0.185,0-0.372-0.024-0.56-0.074c-1.153-0.309-1.838-1.494-1.53-2.646l6.219-23.26    c0.309-1.155,1.494-1.839,2.647-1.532c1.153,0.31,1.838,1.496,1.529,2.648l-6.219,23.26    C28.226,79.404,27.352,80.042,26.397,80.042z"/></g></g><g display="none"><g display="inline"><path d="M65.789,65.015h-8.12l-0.475-1.519c-0.604-1.938-2.603-3.29-4.859-3.29c-1.194,0-2.163-0.968-2.163-2.162    s0.968-2.161,2.163-2.161c3.54,0,6.763,1.913,8.343,4.808h5.111c4.44,0,8.052-3.612,8.052-8.052s-3.611-8.051-8.052-8.051    c-0.984,0-1.96,0.186-2.899,0.549l-2.181,0.843l-0.671-2.237c-1.658-5.516-6.839-9.369-12.599-9.369    c-7.239,0-13.13,5.876-13.157,13.108l0,0.073v2.298l-2.429-0.149c-0.061-0.005-0.123-0.011-0.185-0.011    c-3.031,0-5.498,2.467-5.498,5.5c0,0.698,0.134,1.386,0.398,2.045c0.445,1.108-0.092,2.366-1.2,2.811    c-1.107,0.446-2.367-0.092-2.812-1.198c-0.472-1.174-0.71-2.404-0.71-3.657c0-4.874,3.567-8.93,8.227-9.694    c1.01-8.686,8.412-15.449,17.364-15.449c6.934,0,13.235,4.202,15.997,10.443c0.775-0.152,1.562-0.229,2.353-0.229    c6.825,0,12.375,5.551,12.375,12.375S72.614,65.015,65.789,65.015z"/></g><g display="inline"><path d="M45.382,60.804c-0.18,0-0.364-0.023-0.546-0.071c-1.155-0.301-1.848-1.481-1.546-2.637l1.05-4.024    c0.302-1.155,1.482-1.848,2.638-1.548c1.155,0.303,1.847,1.484,1.545,2.639l-1.05,4.025C47.219,60.16,46.342,60.804,45.382,60.804    z"/></g><g display="inline"><path d="M38.428,60.804c-0.181,0-0.364-0.023-0.548-0.071c-1.155-0.301-1.847-1.481-1.545-2.637l1.051-4.024    c0.301-1.155,1.482-1.848,2.638-1.548c1.155,0.303,1.847,1.484,1.546,2.639l-1.051,4.025    C40.265,60.16,39.388,60.804,38.428,60.804z"/></g><g display="inline"><path d="M31.473,60.804c-0.181,0-0.364-0.023-0.548-0.071c-1.155-0.301-1.847-1.481-1.546-2.637l1.051-4.024    c0.302-1.155,1.483-1.848,2.638-1.548c1.155,0.303,1.848,1.484,1.546,2.639l-1.051,4.025C33.31,60.16,32.433,60.804,31.473,60.804    z"/></g><g display="inline"><path d="M42.883,70.42c-0.181,0-0.365-0.023-0.548-0.071c-1.156-0.3-1.847-1.481-1.546-2.638l1.051-4.025    c0.302-1.155,1.483-1.846,2.637-1.546c1.156,0.301,1.848,1.482,1.546,2.639l-1.05,4.025C44.719,69.774,43.842,70.42,42.883,70.42z    "/></g><g display="inline"><path d="M35.928,70.42c-0.181,0-0.365-0.023-0.547-0.071c-1.155-0.3-1.848-1.481-1.546-2.638l1.051-4.025    c0.302-1.155,1.482-1.846,2.637-1.546c1.155,0.301,1.847,1.482,1.546,2.639l-1.05,4.025C37.765,69.774,36.888,70.42,35.928,70.42z    "/></g><g display="inline"><path d="M28.973,70.42c-0.181,0-0.364-0.023-0.547-0.071c-1.155-0.3-1.847-1.481-1.545-2.638l1.051-4.025    c0.301-1.155,1.482-1.846,2.638-1.546c1.155,0.301,1.847,1.482,1.545,2.639l-1.05,4.025C30.81,69.774,29.934,70.42,28.973,70.42z"/></g><g display="inline"><path d="M33.429,80.034c-0.181,0-0.364-0.022-0.548-0.069c-1.155-0.302-1.847-1.483-1.545-2.638l1.05-4.025    c0.302-1.155,1.483-1.846,2.638-1.546c1.155,0.301,1.848,1.482,1.546,2.638l-1.051,4.024    C35.265,79.391,34.389,80.034,33.429,80.034z"/></g></g><g display="none"><g display="inline"><path d="M65.898,65.013h-8.122l-0.473-1.518c-0.605-1.938-2.604-3.291-4.859-3.291c-1.194,0-2.163-0.967-2.163-2.161    c0-1.193,0.968-2.162,2.163-2.162c3.54,0,6.763,1.914,8.343,4.808h5.111c4.44,0,8.052-3.611,8.052-8.051    c0-4.439-3.611-8.051-8.052-8.051c-0.985,0-1.961,0.185-2.9,0.549l-2.179,0.843l-0.673-2.237    c-1.657-5.516-6.838-9.369-12.598-9.369c-7.241,0-13.134,5.879-13.158,13.115l0,0.066v2.298l-2.428-0.149    c-0.062-0.004-0.123-0.01-0.185-0.01c-3.031,0-5.498,2.467-5.498,5.499c0,0.698,0.134,1.387,0.399,2.047    c0.445,1.106-0.092,2.364-1.2,2.811c-1.108,0.444-2.367-0.092-2.812-1.2c-0.472-1.172-0.71-2.402-0.71-3.657    c0-4.874,3.567-8.929,8.227-9.693c1.01-8.685,8.412-15.449,17.364-15.449c6.934,0,13.235,4.202,15.996,10.442    c0.776-0.152,1.562-0.229,2.354-0.229c6.824,0,12.375,5.551,12.375,12.375S72.723,65.013,65.898,65.013z"/></g><path display="inline" d="M40.13,52.522c-1.155-0.3-2.336,0.394-2.636,1.549l-2.499,9.616h0l-1.05,4.022   c-0.302,1.155,0.391,2.337,1.545,2.638c0.183,0.047,0.367,0.07,0.548,0.07c0.959,0,1.836-0.644,2.089-1.616l1.051-4.025   c0-0.001,0-0.001,0-0.001c0,0,0-0.001,0-0.001l2.5-9.615C41.979,54.004,41.286,52.824,40.13,52.522z"/><g display="inline"><path d="M33.177,52.523c-1.155-0.301-2.336,0.391-2.638,1.546l-1.051,4.025c-0.302,1.155,0.391,2.335,1.546,2.638    c0.183,0.048,0.367,0.071,0.547,0.071c0.96,0,1.836-0.646,2.09-1.617l1.051-4.026C35.024,54.006,34.333,52.824,33.177,52.523z"/><path d="M30.678,62.139c-1.155-0.301-2.336,0.391-2.638,1.546l-1.051,4.025c-0.301,1.155,0.391,2.337,1.546,2.638    c0.183,0.047,0.366,0.07,0.547,0.07c0.96,0,1.836-0.644,2.09-1.616l1.05-4.025C32.525,63.621,31.833,62.44,30.678,62.139z"/></g><g display="inline"><path d="M47.085,52.523c-1.155-0.303-2.336,0.393-2.636,1.548l-6.05,23.256c-0.301,1.155,0.393,2.336,1.548,2.637    c0.182,0.048,0.366,0.07,0.545,0.07c0.96,0,1.838-0.646,2.091-1.618l6.049-23.257C48.934,54.004,48.24,52.824,47.085,52.523z"/><path d="M35.133,71.755c-1.155-0.301-2.336,0.391-2.638,1.546l-1.05,4.024c-0.302,1.156,0.391,2.336,1.545,2.639    c0.183,0.047,0.367,0.07,0.547,0.07c0.96,0,1.837-0.646,2.09-1.616l1.051-4.025C36.98,73.236,36.288,72.057,35.133,71.755z"/><path d="M28.178,71.755c-1.155-0.301-2.336,0.391-2.638,1.546l-1.051,4.024c-0.302,1.156,0.391,2.336,1.545,2.639    c0.184,0.047,0.367,0.07,0.548,0.07c0.959,0,1.837-0.646,2.09-1.616l1.051-4.025C30.026,73.236,29.333,72.057,28.178,71.755z"/></g></g><g display="none"><path display="inline" d="M68.634,72.85c-6.56,0-13.03-2.276-19.377-4.511c-10.52-3.702-20.455-7.198-30.297-0.271   c-0.977,0.688-2.325,0.453-3.012-0.522c-0.688-0.977-0.453-2.326,0.523-3.014c11.665-8.21,23.131-4.174,34.221-0.27   c10.519,3.701,20.455,7.198,30.296,0.27c0.977-0.686,2.324-0.451,3.013,0.523c0.688,0.979,0.452,2.326-0.524,3.013   C78.489,71.578,73.536,72.85,68.634,72.85z"/><path display="inline" d="M33.202,66.998c-0.677-0.048-1.354-0.071-2.027-0.065h-0.191c-0.37,0.006-0.738,0.023-1.106,0.046   l-2.736,3.268l0.006,0.005c-1.001,1.076-1.618,2.515-1.618,4.1c0,3.327,2.698,6.024,6.024,6.024c3.327,0,6.024-2.697,6.024-6.024   c0-1.705-0.711-3.239-1.85-4.337L33.202,66.998z"/><path display="inline" d="M70.376,64.655h-8.121l-0.474-1.517c-0.604-1.938-2.604-3.292-4.86-3.292   c-1.193,0-2.162-0.968-2.162-2.16c0-1.195,0.969-2.164,2.162-2.164c3.541,0,6.765,1.915,8.344,4.81h5.111   c4.439,0,8.052-3.611,8.052-8.052c0-4.44-3.612-8.051-8.052-8.051c-0.982,0-1.959,0.185-2.901,0.55l-2.179,0.842l-0.672-2.236   c-1.657-5.516-6.837-9.369-12.598-9.369c-7.226,0-13.11,5.854-13.158,13.069l0.001,0.112v2.287l-2.435-0.138   c-0.059-0.004-0.118-0.01-0.178-0.01c-3.032,0-5.498,2.466-5.498,5.497c0,1.195-0.968,2.164-2.162,2.164   c-1.193,0-2.162-0.969-2.162-2.164c0-4.873,3.567-8.928,8.227-9.691c1.01-8.686,8.412-15.449,17.364-15.449   c6.934,0,13.235,4.201,15.998,10.442c0.775-0.153,1.562-0.229,2.352-0.229c6.823,0,12.375,5.551,12.375,12.375   C82.751,59.104,77.199,64.655,70.376,64.655z"/></g><g display="none"><path display="inline" d="M68.842,70.328c-6.561,0-13.029-2.277-19.377-4.512c-10.519-3.703-20.455-7.198-30.296-0.271   c-0.977,0.687-2.325,0.452-3.012-0.524c-0.687-0.976-0.453-2.324,0.523-3.012c11.664-8.211,23.131-4.174,34.22-0.271   c10.52,3.703,20.455,7.199,30.297,0.271c0.977-0.688,2.325-0.454,3.012,0.524c0.688,0.975,0.453,2.325-0.523,3.012   C78.697,69.057,73.744,70.328,68.842,70.328z"/><path display="inline" d="M70.584,62.134h-8.119l-0.476-1.518c-0.604-1.938-2.603-3.292-4.859-3.292   c-1.194,0-2.162-0.967-2.162-2.162c0-1.192,0.968-2.162,2.162-2.162c3.541,0,6.764,1.913,8.344,4.809h5.11   c4.438,0,8.052-3.611,8.052-8.051c0-4.439-3.613-8.051-8.052-8.051c-0.982,0-1.96,0.185-2.9,0.55l-2.18,0.843l-0.672-2.237   c-1.656-5.516-6.837-9.369-12.598-9.369c-7.24,0-13.134,5.878-13.158,13.112l0.001,0.068v2.287l-2.435-0.138   c-0.06-0.004-0.118-0.01-0.178-0.01c-3.031,0-5.498,2.466-5.498,5.499c0,1.193-0.968,2.161-2.162,2.161s-2.162-0.968-2.162-2.161   c0-4.873,3.567-8.929,8.228-9.693c1.01-8.686,8.412-15.449,17.364-15.449c6.934,0,13.235,4.202,15.996,10.442   c0.776-0.153,1.563-0.229,2.354-0.229c6.823,0,12.375,5.551,12.375,12.375S77.407,62.134,70.584,62.134z"/><circle display="inline" cx="35.096" cy="66.826" r="2.161"/><circle display="inline" cx="35.096" cy="73.714" r="2.161"/><circle display="inline" cx="35.096" cy="80.602" r="2.161"/><circle display="inline" cx="29.766" cy="70.269" r="2.161"/><circle display="inline" cx="29.766" cy="77.156" r="2.161"/><circle display="inline" cx="40.725" cy="70.269" r="2.161"/><circle display="inline" cx="40.725" cy="77.156" r="2.161"/></g><g display="none"><path display="inline" d="M77.516,52.931h-10.07c-0.396-3.205-1.663-6.141-3.558-8.568l4.065-4.065   c0.845-0.844,0.845-2.213,0-3.058s-2.214-0.844-3.058,0l-4.063,4.065c-2.428-1.894-5.364-3.16-8.568-3.557v-8.63   c0-1.194-0.968-2.163-2.162-2.163s-2.162,0.968-2.162,2.163v8.63c-3.205,0.397-6.141,1.663-8.568,3.557l-4.064-4.065   c-0.845-0.844-2.214-0.844-3.058,0s-0.844,2.213,0,3.058l4.065,4.065c-1.894,2.427-3.159,5.363-3.557,8.568H22.688   c-1.194,0-2.162,0.968-2.162,2.161c0,1.194,0.968,2.161,2.162,2.161h10.071c0.397,3.206,1.663,6.142,3.557,8.568l-4.065,4.066   c-0.844,0.845-0.844,2.212,0,3.056c0.422,0.424,0.976,0.634,1.529,0.634c0.554,0,1.107-0.21,1.529-0.634l4.064-4.064   c2.427,1.894,5.364,3.159,8.568,3.556v8.63c0,1.195,0.968,2.163,2.162,2.163s2.162-0.968,2.162-2.163v-8.63   c3.204-0.396,6.14-1.662,8.568-3.556l4.063,4.064c0.423,0.424,0.977,0.634,1.529,0.634c0.554,0,1.106-0.21,1.528-0.634   c0.845-0.844,0.845-2.211,0-3.056l-4.065-4.066c1.895-2.427,3.161-5.362,3.558-8.568h10.07c1.194,0,2.162-0.967,2.162-2.161   C79.678,53.898,78.71,52.931,77.516,52.931z M50.102,68.25c-7.256,0-13.158-5.903-13.158-13.158   c0-7.255,5.902-13.158,13.158-13.158c7.255,0,13.158,5.903,13.158,13.158C63.26,62.347,57.357,68.25,50.102,68.25z"/></g><g display="none"><path display="inline" d="M22.616,58.335h10.071c0,0.001,0-0.002,0,0h4.366c-0.118-0.704-0.181-1.425-0.181-2.161   c0-7.256,5.903-13.159,13.158-13.159c7.255,0,13.157,5.902,13.157,13.159c0,0.736-0.064,1.457-0.182,2.161h4.366   c0-0.002,0.001,0.001,0.001,0h10.071c1.194,0,2.162-0.969,2.162-2.161c0-1.195-0.968-2.162-2.162-2.162H67.374   c-0.397-3.204-1.663-6.141-3.557-8.568l4.065-4.065c0.844-0.844,0.844-2.213,0-3.057c-0.845-0.845-2.213-0.844-3.058,0   l-4.066,4.065c-2.426-1.893-5.362-3.16-8.566-3.557v-8.631c0-1.194-0.968-2.162-2.161-2.162c-1.194,0-2.163,0.968-2.163,2.162   v8.631c-3.203,0.397-6.14,1.664-8.567,3.557l-4.065-4.065c-0.845-0.844-2.213-0.844-3.058,0s-0.844,2.213,0,3.057l4.065,4.065   c-1.893,2.427-3.159,5.364-3.557,8.568H22.616c-1.194,0-2.162,0.967-2.162,2.162C20.455,57.366,21.422,58.335,22.616,58.335z"/><g display="inline"><path d="M49.938,82.223L49.938,82.223c-0.574,0-1.124-0.228-1.529-0.633L33.089,66.271c-0.844-0.845-0.844-2.214,0-3.059    c0.845-0.843,2.213-0.843,3.058,0l13.791,13.793l13.791-13.793c0.845-0.843,2.214-0.844,3.059,0c0.845,0.845,0.843,2.214,0,3.059    L51.466,81.59C51.061,81.995,50.511,82.223,49.938,82.223z"/></g></g><g display="none"><path display="inline" d="M22.545,58.335h10.071c0,0.001,0,0.002,0,0.002h4.366c-0.117-0.704-0.181-1.427-0.181-2.163   c0-7.256,5.902-13.159,13.158-13.159c7.254,0,13.159,5.902,13.159,13.159c0,0.736-0.065,1.459-0.182,2.163h4.366   c0,0,0-0.001,0-0.002h10.069c1.195,0,2.164-0.969,2.164-2.161c0-1.195-0.969-2.162-2.164-2.162H67.303   c-0.397-3.204-1.662-6.141-3.557-8.568l4.065-4.065c0.845-0.844,0.845-2.213,0-3.057c-0.844-0.845-2.214-0.844-3.058,0   l-4.064,4.065c-2.427-1.893-5.363-3.16-8.568-3.557v-8.631c0-1.194-0.968-2.162-2.162-2.162s-2.162,0.968-2.162,2.162v8.631   c-3.204,0.397-6.141,1.664-8.568,3.557l-4.064-4.065c-0.845-0.844-2.214-0.844-3.058,0c-0.844,0.844-0.844,2.213,0,3.057   l4.064,4.065c-1.893,2.427-3.158,5.364-3.556,8.568H22.545c-1.194,0-2.162,0.967-2.162,2.162   C20.384,57.366,21.352,58.335,22.545,58.335z"/><g display="inline"><path d="M35.109,82.198c-0.553,0-1.106-0.212-1.528-0.634c-0.844-0.843-0.844-2.214-0.001-3.057l15.32-15.32    c0.406-0.406,0.955-0.634,1.529-0.634c0.573,0,1.123,0.228,1.528,0.634l15.32,15.32c0.845,0.843,0.845,2.212,0,3.057    s-2.213,0.845-3.057,0L50.429,67.773L36.638,81.564C36.216,81.986,35.662,82.198,35.109,82.198z"/></g></g><g display="none"><path display="inline" d="M51.355,72.592c-9.639,0-17.481-7.844-17.481-17.483s7.842-17.481,17.481-17.481   c0.455,0,0.87,0.031,1.272,0.062c0.774,0.058,1.478,0.53,1.81,1.232c0.333,0.703,0.28,1.531-0.166,2.168   c-1.559,2.223-2.383,4.828-2.383,7.535c0,2.03,0.45,3.976,1.337,5.781c2.051,4.174,6.203,6.981,10.835,7.324   c0.776,0.06,1.46,0.528,1.793,1.231c0.334,0.701,0.264,1.529-0.183,2.165C62.396,69.8,57.042,72.592,51.355,72.592z M48.789,42.202   c-6.031,1.198-10.591,6.53-10.591,12.906c0,7.256,5.903,13.159,13.158,13.159c3.08,0,6.029-1.09,8.361-3.012   c-4.468-1.437-8.26-4.645-10.373-8.946c-1.18-2.405-1.779-4.99-1.779-7.687C47.565,46.401,47.983,44.232,48.789,42.202z"/></g><g display="none"><path display="inline" d="M72.421,53.689H27.68c-1.194,0-2.162-0.969-2.162-2.161c0-1.194,0.968-2.162,2.162-2.162h44.741   c1.193,0,2.161,0.968,2.161,2.162C74.582,52.721,73.614,53.689,72.421,53.689z"/><path display="inline" d="M55.847,46.976h-20.96c-1.194,0-2.162-0.968-2.162-2.162s0.968-2.162,2.162-2.162h20.96   c1.194,0,2.161,0.968,2.161,2.162S57.041,46.976,55.847,46.976z"/><path display="inline" d="M55.847,67.689h-20.96c-1.194,0-2.162-0.967-2.162-2.162c0-1.193,0.968-2.162,2.162-2.162h20.96   c1.194,0,2.161,0.969,2.161,2.162C58.008,66.723,57.041,67.689,55.847,67.689z"/><path display="inline" d="M67.015,67.689H62.63c-1.194,0-2.163-0.967-2.163-2.162c0-1.193,0.969-2.162,2.163-2.162h4.385   c1.195,0,2.164,0.969,2.164,2.162C69.179,66.723,68.21,67.689,67.015,67.689z"/><path display="inline" d="M37.472,60.668h-4.387c-1.194,0-2.162-0.97-2.162-2.162c0-1.195,0.968-2.162,2.162-2.162h4.387   c1.194,0,2.162,0.967,2.162,2.162C39.634,59.698,38.666,60.668,37.472,60.668z"/><path display="inline" d="M69.898,60.668H43.173c-1.194,0-2.162-0.97-2.162-2.162c0-1.195,0.968-2.162,2.162-2.162h26.725   c1.194,0,2.162,0.967,2.162,2.162C72.061,59.698,71.093,60.668,69.898,60.668z"/></g><g><path d="M45.621,46.983H26.821c-1.194,0-2.162-0.967-2.162-2.162c0-1.194,0.968-2.162,2.162-2.162h18.799   c1.194,0,2.162,0.968,2.162,2.162C47.782,46.016,46.814,46.983,45.621,46.983z"/><path d="M71.253,53.697H20.875c-1.194,0-2.162-0.968-2.162-2.162c0-1.193,0.968-2.162,2.162-2.162h50.377   c3.031,0,5.498-2.467,5.498-5.498c0-3.032-2.467-5.498-5.498-5.498c-3.032,0-5.498,2.466-5.498,5.498   c0,1.194-0.969,2.162-2.163,2.162c-1.193,0-2.161-0.968-2.161-2.162c0-5.416,4.405-9.822,9.822-9.822   c5.415,0,9.822,4.406,9.822,9.822S76.668,53.697,71.253,53.697z"/><path d="M57.482,75.995c-5.416,0-9.821-4.406-9.821-9.822c0-1.193,0.967-2.161,2.162-2.161c1.194,0,2.162,0.968,2.162,2.161   c0,3.032,2.468,5.497,5.498,5.497c3.031,0,5.498-2.465,5.498-5.497c0-3.031-2.467-5.498-5.498-5.498H30.568   c-1.193,0-2.162-0.969-2.162-2.161c0-1.194,0.969-2.162,2.162-2.162h26.914c5.416,0,9.821,4.406,9.821,9.821   C67.304,71.589,62.898,75.995,57.482,75.995z"/></g><g display="none"><path display="inline" d="M67.344,68.184c-0.393,0-0.791-0.105-1.148-0.331L31.383,45.977c-1.011-0.636-1.315-1.97-0.68-2.98   c0.635-1.011,1.969-1.316,2.98-0.681L68.496,64.19c1.011,0.637,1.315,1.971,0.679,2.981C68.766,67.826,68.062,68.184,67.344,68.184   z"/><path display="inline" d="M32.536,68.184c-0.719,0-1.422-0.357-1.832-1.012c-0.636-1.011-0.331-2.345,0.68-2.981l34.812-21.875   c1.01-0.636,2.346-0.33,2.979,0.681c0.637,1.011,0.332,2.345-0.679,2.98L33.684,67.853C33.326,68.078,32.928,68.184,32.536,68.184z   "/><path display="inline" d="M49.938,79.025c-1.194,0-2.162-0.968-2.162-2.162V33.305c0-1.193,0.968-2.162,2.162-2.162   c1.193,0,2.162,0.968,2.162,2.162v43.558C52.101,78.058,51.132,79.025,49.938,79.025z"/><path display="inline" d="M49.938,45.359l-7.643-7.643c-0.845-0.844-0.845-2.212,0-3.057c0.844-0.845,2.213-0.845,3.057,0   l4.587,4.585l4.585-4.585c0.845-0.845,2.214-0.845,3.058,0c0.845,0.844,0.845,2.212,0,3.057L49.938,45.359z"/><path display="inline" d="M43.823,76.144c-0.553,0-1.107-0.212-1.529-0.634c-0.844-0.845-0.844-2.214,0-3.059l7.643-7.642   l7.643,7.642c0.845,0.845,0.845,2.214,0,3.059c-0.844,0.844-2.213,0.844-3.058,0l-4.585-4.586l-4.585,4.586   C44.93,75.932,44.376,76.144,43.823,76.144z"/><path display="inline" d="M30.696,52.313c-0.988,0-1.881-0.682-2.106-1.687c-0.264-1.165,0.469-2.322,1.634-2.584l6.326-1.425   l-1.425-6.327c-0.262-1.165,0.47-2.321,1.634-2.583c1.167-0.262,2.322,0.47,2.584,1.634l2.374,10.545L31.173,52.26   C31.013,52.296,30.854,52.313,30.696,52.313z"/><path display="inline" d="M62.638,72.515c-0.989,0-1.881-0.684-2.107-1.687l-2.374-10.546l10.546-2.374   c1.165-0.263,2.321,0.469,2.583,1.635c0.263,1.163-0.469,2.32-1.635,2.584l-6.325,1.425l1.424,6.325   c0.262,1.165-0.47,2.322-1.635,2.584C62.953,72.497,62.795,72.515,62.638,72.515z"/><path display="inline" d="M37.204,72.488c-0.159,0-0.32-0.018-0.481-0.055c-1.164-0.265-1.894-1.424-1.629-2.588l1.439-6.323   l-6.325-1.438c-1.164-0.267-1.893-1.425-1.628-2.589c0.265-1.165,1.423-1.895,2.587-1.628l10.541,2.397L39.31,70.805   C39.082,71.809,38.191,72.488,37.204,72.488z"/><path display="inline" d="M69.188,52.355c-0.158,0-0.32-0.018-0.48-0.054l-10.541-2.398l2.396-10.54   c0.266-1.165,1.424-1.894,2.589-1.628c1.165,0.264,1.893,1.423,1.628,2.587l-1.438,6.324l6.324,1.438   c1.164,0.265,1.892,1.423,1.628,2.587C71.066,51.676,70.175,52.355,69.188,52.355z"/></g><g display="none"><path display="inline" d="M56.234,61.104c0.152-0.556,0.231-1.131,0.231-1.716V38.427c0-3.576-2.91-6.485-6.486-6.485   c-3.577,0-6.485,2.909-6.485,6.485v20.962c0,0.538,0.065,1.07,0.195,1.583c-2.279,1.843-3.633,4.619-3.633,7.623   c0,5.415,4.406,9.821,9.822,9.821c5.416,0,9.822-4.406,9.822-9.821C59.701,65.675,58.41,62.95,56.234,61.104z M47.818,38.427   c0-1.192,0.969-2.162,2.162-2.162c1.192,0,2.162,0.969,2.162,2.162v20.962c0,0.017-0.004,0.034-0.004,0.054   c-1.319-0.287-2.996-0.287-4.316,0c0-0.02-0.003-0.037-0.003-0.054V38.427z"/></g><g display="none"><path display="inline" d="M56.506,61.104c0.151-0.556,0.23-1.131,0.23-1.716V38.427c0-3.576-2.91-6.485-6.486-6.485   c-3.576,0-6.485,2.909-6.485,6.485v20.962c0,0.538,0.066,1.07,0.196,1.583c-2.278,1.843-3.632,4.619-3.632,7.623   c0,5.415,4.406,9.821,9.822,9.821c5.417,0,9.822-4.406,9.822-9.821C59.973,65.675,58.681,62.95,56.506,61.104z M50.25,36.265   c1.193,0,2.163,0.969,2.163,2.162v12.479c-1.322-0.289-3.003-0.289-4.324,0V38.427C48.089,37.234,49.059,36.265,50.25,36.265z"/></g><g display="none"><path display="inline" d="M56.376,61.104c0.151-0.556,0.229-1.131,0.229-1.717V38.427c0-3.576-2.908-6.485-6.485-6.485   c-3.576,0-6.485,2.909-6.485,6.485v20.961c0,0.539,0.066,1.069,0.195,1.584c-2.278,1.843-3.632,4.619-3.632,7.623   c0,5.415,4.406,9.821,9.821,9.821c5.416,0,9.823-4.406,9.823-9.821C59.843,65.675,58.552,62.949,56.376,61.104z M50.121,36.265   c1.192,0,2.163,0.969,2.163,2.162v2.391c-1.322-0.29-3.002-0.29-4.324,0v-2.391C47.959,37.234,48.929,36.265,50.121,36.265z"/></g><g display="none"><path display="inline" d="M87.376,51.859h-10.07c-0.398-3.205-1.664-6.142-3.558-8.569l4.065-4.064   c0.844-0.845,0.844-2.213,0-3.058c-0.844-0.844-2.214-0.844-3.058,0l-4.064,4.065c-2.428-1.894-5.365-3.159-8.568-3.557v-8.63   c0-1.194-0.969-2.161-2.162-2.161S57.8,26.853,57.8,28.047v8.63c-3.204,0.397-6.141,1.663-8.568,3.557l-4.065-4.065   c-0.844-0.844-2.213-0.844-3.058,0c-0.844,0.844-0.844,2.213,0,3.058l4.065,4.064c-1.685,2.161-2.869,4.725-3.39,7.521   c-2.141-0.93-4.481-1.442-6.899-1.442c-8.953,0-16.354,6.763-17.364,15.449c-4.661,0.764-8.228,4.819-8.228,9.692   c0,1.254,0.239,2.483,0.711,3.657l0.545,1.356h29.23c2.256,0,4.254,1.354,4.861,3.291l0.474,1.517h8.12   c6.823,0,12.375-5.551,12.375-12.376c0-0.587-0.045-1.166-0.125-1.732c1.517-0.612,2.933-1.425,4.205-2.419l4.064,4.065   c0.422,0.424,0.976,0.634,1.529,0.634c0.552,0,1.105-0.21,1.528-0.634c0.844-0.843,0.844-2.211,0-3.056l-4.065-4.065   c1.894-2.427,3.159-5.363,3.558-8.568h10.07c1.192,0,2.161-0.968,2.161-2.16C89.537,52.826,88.568,51.859,87.376,51.859z    M54.236,80.01h-5.112c-1.58-2.895-4.803-4.809-8.343-4.809H14.662c-0.029-0.229-0.044-0.459-0.044-0.689   c0-3.032,2.467-5.499,5.499-5.499c0.061,0,0.121,0.006,0.181,0.012l2.432,0.142v-2.292l0-0.067   c0.024-7.234,5.917-13.113,13.158-13.113c5.761,0,10.94,3.853,12.598,9.368l0.672,2.237l2.179-0.842   c0.94-0.366,1.917-0.55,2.901-0.55c4.439,0,8.051,3.611,8.051,8.05C62.287,76.397,58.676,80.01,54.236,80.01z M65.141,66.113   c-2.09-3.883-6.193-6.529-10.904-6.529c-0.792,0-1.578,0.076-2.353,0.229c-1.146-2.588-2.901-4.824-5.057-6.556   c0.398-6.901,6.135-12.395,13.134-12.395c7.255,0,13.159,5.903,13.159,13.159C73.12,59.438,69.828,64.098,65.141,66.113z"/></g><g display="none"><path display="inline" d="M87.385,48.616H77.315c-0.397-3.204-1.664-6.14-3.559-8.568l4.065-4.064c0.845-0.845,0.845-2.213,0-3.058   c-0.844-0.844-2.214-0.844-3.057,0l-4.064,4.065c-2.428-1.893-5.364-3.159-8.569-3.556v-8.63c0-1.194-0.967-2.162-2.16-2.162   c-1.194,0-2.161,0.968-2.161,2.162v8.63c-3.206,0.397-6.142,1.664-8.569,3.557l-4.065-4.065c-0.844-0.844-2.214-0.844-3.057,0   c-0.845,0.844-0.845,2.213,0,3.058l4.065,4.065c-1.712,2.196-2.905,4.812-3.412,7.663c-2.144-0.932-4.488-1.446-6.909-1.446   c-8.952,0-16.354,6.764-17.363,15.449c-4.661,0.764-8.228,4.819-8.228,9.692c0,1.254,0.239,2.485,0.71,3.658   c0.445,1.107,1.704,1.644,2.812,1.199c1.107-0.444,1.645-1.704,1.2-2.812c-0.265-0.657-0.398-1.346-0.398-2.045   c0-3.031,2.466-5.499,5.498-5.499c0.062,0,0.123,0.007,0.184,0.011l2.429,0.149V63.77l-0.001-0.067   c0.024-7.235,5.917-13.114,13.157-13.114c5.76,0,10.941,3.852,12.598,9.368l0.673,2.237l2.179-0.842   c0.94-0.366,1.916-0.55,2.899-0.55c4.439,0,8.052,3.612,8.052,8.052c0,4.438-3.612,8.05-8.052,8.05h-5.111   c-1.579-2.894-4.802-4.806-8.343-4.806c-1.194,0-2.162,0.967-2.162,2.159c0,1.195,0.968,2.163,2.162,2.163   c2.256,0,4.255,1.353,4.86,3.291l0.474,1.517h8.119c6.823,0,12.376-5.552,12.376-12.374c0-0.63-0.049-1.248-0.14-1.854   c1.536-0.613,2.966-1.433,4.253-2.436l4.064,4.065c0.422,0.423,0.976,0.634,1.528,0.634c0.554,0,1.106-0.211,1.528-0.634   c0.845-0.844,0.845-2.214,0-3.057l-4.065-4.066c1.895-2.427,3.161-5.362,3.559-8.567h10.069c1.194,0,2.162-0.968,2.162-2.162   C89.547,49.584,88.579,48.616,87.385,48.616z M65.061,62.908c-2.107-3.83-6.179-6.431-10.849-6.431c-0.79,0-1.576,0.077-2.352,0.23   c-1.141-2.58-2.888-4.809-5.032-6.538c0.319-6.974,6.09-12.55,13.143-12.55c7.255,0,13.157,5.902,13.157,13.157   C73.129,56.229,69.796,60.913,65.061,62.908z"/><circle display="inline" cx="27.511" cy="71.149" r="2.161"/><circle display="inline" cx="27.511" cy="78.035" r="2.161"/><circle display="inline" cx="27.511" cy="84.923" r="2.161"/><circle display="inline" cx="22.181" cy="74.593" r="2.162"/><circle display="inline" cx="22.181" cy="81.48" r="2.162"/><circle display="inline" cx="33.141" cy="74.593" r="2.161"/><circle display="inline" cx="33.141" cy="81.48" r="2.161"/></g><g display="none"><g display="inline"><path d="M87.395,48.976h-10.07c-0.396-3.204-1.664-6.141-3.557-8.568l4.064-4.065c0.845-0.844,0.845-2.213,0-3.057    c-0.845-0.844-2.213-0.844-3.057,0l-4.064,4.064c-2.429-1.893-5.364-3.159-8.568-3.556v-8.63c0-1.194-0.969-2.162-2.163-2.162    c-1.192,0-2.161,0.968-2.161,2.162v8.63c-3.204,0.397-6.141,1.663-8.567,3.557l-4.065-4.065c-0.844-0.844-2.213-0.844-3.057,0    c-0.844,0.844-0.844,2.212,0,3.057l4.065,4.065c-1.693,2.171-2.879,4.75-3.397,7.562c-2.162-0.952-4.53-1.479-6.979-1.479    c-8.952,0-16.354,6.763-17.364,15.45c-4.66,0.763-8.228,4.818-8.228,9.691c0,1.254,0.24,2.485,0.711,3.659    c0.445,1.107,1.705,1.645,2.812,1.197c1.108-0.444,1.645-1.704,1.199-2.812c-0.264-0.656-0.398-1.346-0.398-2.045    c0-3.032,2.466-5.497,5.498-5.497c0.061,0,0.12,0.004,0.179,0.009l2.435,0.139v-2.287l-0.001-0.082    c0.032-7.228,5.922-13.099,13.159-13.099c5.761,0,10.941,3.852,12.597,9.369l0.672,2.237l2.179-0.843    c0.941-0.365,1.917-0.55,2.9-0.55c4.439,0,8.052,3.611,8.052,8.052c0,4.438-3.612,8.052-8.052,8.052h-5.111    c-1.58-2.896-4.803-4.81-8.343-4.81c-1.195,0-2.162,0.969-2.162,2.162s0.967,2.161,2.162,2.161c2.256,0,4.255,1.354,4.86,3.292    l0.475,1.517h8.119c6.824,0,12.375-5.551,12.375-12.374c0-0.58-0.043-1.148-0.12-1.706c1.549-0.616,2.992-1.439,4.288-2.451    l4.065,4.065c0.422,0.424,0.976,0.634,1.528,0.634c0.554,0,1.107-0.21,1.528-0.634c0.845-0.844,0.845-2.212,0-3.056l-4.064-4.065    c1.893-2.428,3.16-5.363,3.557-8.569h10.07c1.194,0,2.162-0.967,2.162-2.161C89.557,49.944,88.589,48.976,87.395,48.976z     M65.085,63.26c-2.086-3.896-6.196-6.554-10.918-6.554c-0.79,0-1.576,0.076-2.353,0.229c-1.13-2.556-2.854-4.768-4.973-6.492    c0.362-6.934,6.117-12.463,13.138-12.463c7.257,0,13.159,5.903,13.159,13.158C73.139,56.584,69.812,61.265,65.085,63.26z"/><path d="M34.577,73.456c-0.635-1.012-1.97-1.316-2.98-0.681l-2.169,1.363v-2.946c0-1.193-0.968-2.161-2.162-2.161    c-1.193,0-2.162,0.968-2.162,2.161v2.946l-2.168-1.363c-1.011-0.636-2.346-0.331-2.98,0.681c-0.635,1.01-0.331,2.345,0.68,2.98    l2.567,1.612l-2.567,1.614c-1.011,0.635-1.315,1.968-0.68,2.979c0.411,0.653,1.114,1.013,1.833,1.013    c0.393,0,0.791-0.107,1.148-0.331l2.168-1.363v2.944c0,1.194,0.968,2.162,2.162,2.162c1.194,0,2.162-0.968,2.162-2.162v-2.944    l2.169,1.363c0.357,0.224,0.755,0.331,1.148,0.331c0.719,0,1.421-0.359,1.832-1.013c0.636-1.012,0.331-2.345-0.681-2.979    l-2.566-1.614l2.566-1.612C34.908,75.801,35.213,74.466,34.577,73.456z"/></g></g><g display="none"><g display="inline"><path d="M87.404,38.527H77.332c-0.396-3.204-1.662-6.14-3.556-8.568l4.065-4.064c0.844-0.845,0.844-2.213,0-3.058    c-0.845-0.844-2.214-0.844-3.058,0l-4.064,4.065c-2.428-1.893-5.364-3.159-8.568-3.556v-8.631c0-1.193-0.967-2.161-2.162-2.161    c-1.192,0-2.161,0.968-2.161,2.161v8.631c-3.204,0.397-6.14,1.663-8.567,3.556l-4.065-4.065c-0.845-0.845-2.213-0.844-3.058,0    c-0.844,0.844-0.844,2.213,0,3.058l4.065,4.065c-1.681,2.154-2.863,4.709-3.387,7.497c-2.126-0.916-4.45-1.42-6.848-1.42    c-8.952,0-16.354,6.764-17.364,15.449c-4.661,0.765-8.228,4.82-8.228,9.693c0,1.253,0.239,2.485,0.711,3.657    c0.446,1.107,1.705,1.646,2.812,1.199c1.108-0.444,1.645-1.704,1.199-2.813c-0.265-0.656-0.399-1.346-0.399-2.043    c0-3.032,2.467-5.499,5.499-5.499c0.06,0,0.119,0.006,0.178,0.009l2.435,0.139V53.54l0-0.068    c0.024-7.234,5.917-13.112,13.157-13.112c5.76,0,10.941,3.853,12.599,9.369l0.672,2.238l2.18-0.844    c0.94-0.364,1.916-0.55,2.898-0.55c4.44,0,8.053,3.613,8.053,8.051c0,4.44-3.612,8.053-8.053,8.053h-5.11    c-1.579-2.895-4.802-4.809-8.343-4.809c-1.194,0-2.162,0.967-2.162,2.161c0,1.193,0.968,2.162,2.162,2.162    c2.257,0,4.256,1.354,4.86,3.29L46.198,71h8.12c6.825,0,12.376-5.552,12.376-12.376c0-0.593-0.044-1.178-0.126-1.75    c1.498-0.61,2.894-1.417,4.152-2.398l4.064,4.064c0.423,0.423,0.976,0.634,1.529,0.634c0.553,0,1.105-0.211,1.528-0.634    c0.844-0.843,0.844-2.212,0-3.056l-4.065-4.065c1.894-2.427,3.159-5.364,3.556-8.568h10.072c1.193,0,2.162-0.968,2.162-2.162    S88.598,38.527,87.404,38.527z M65.215,52.763c-2.094-3.875-6.192-6.513-10.897-6.513c-0.791,0-1.576,0.077-2.353,0.229    c-1.153-2.608-2.927-4.858-5.106-6.597c0.418-6.88,6.147-12.351,13.13-12.351c7.257,0,13.159,5.902,13.159,13.158    C73.148,46.089,69.878,50.738,65.215,52.763z"/><path d="M34.702,73.359C34.702,73.359,34.702,73.359,34.702,73.359l-3.623,0.002l2.349-8.767c0.174-0.649,0.036-1.342-0.374-1.874    c-0.409-0.535-1.042-0.847-1.714-0.847h-6.44c-0.979,0-1.835,0.656-2.088,1.603l-4.38,16.347    c-0.174,0.649-0.037,1.343,0.373,1.876c0.41,0.533,1.043,0.846,1.715,0.846H24.7l-0.552,12.404    c-0.047,1.044,0.659,1.971,1.677,2.203c0.161,0.037,0.324,0.055,0.484,0.055c0.848,0,1.638-0.5,1.985-1.308l8.394-19.524    c0.288-0.667,0.22-1.437-0.18-2.043C36.107,73.725,35.429,73.359,34.702,73.359z"/></g></g><g display="none"><path display="inline" d="M83.891,57.077c-0.333-0.703-1.019-1.172-1.792-1.229c-4.635-0.344-8.787-3.151-10.837-7.326   c-0.886-1.806-1.336-3.751-1.336-5.781c0-2.706,0.823-5.312,2.384-7.535c0.445-0.637,0.515-1.464,0.182-2.167   c-0.332-0.703-1.018-1.173-1.794-1.23l-0.063-0.004c-0.392-0.029-0.796-0.06-1.241-0.06c-8.945,0-16.34,6.756-17.358,15.432   c-2.95-2.189-6.577-3.466-10.397-3.466c-8.952,0-16.354,6.763-17.364,15.449c-4.66,0.765-8.227,4.82-8.227,9.693   c0,1.254,0.239,2.485,0.71,3.657l0.545,1.355h29.23c2.256,0,4.255,1.353,4.86,3.29l0.474,1.519h8.121   c6.774,0,12.293-5.473,12.37-12.232c4.543-0.785,8.651-3.349,11.35-7.198C84.154,58.607,84.224,57.78,83.891,57.077z    M59.987,74.351h-5.112c-1.578-2.895-4.801-4.808-8.342-4.808h-26.12c-0.028-0.229-0.043-0.459-0.043-0.689   c0-3.032,2.466-5.499,5.498-5.499c0.061,0,0.119,0.005,0.179,0.009l2.434,0.139v-2.287l0-0.118   c0.051-7.212,5.933-13.062,13.157-13.062c5.761,0,10.941,3.852,12.599,9.368l0.673,2.239l2.18-0.845   c0.94-0.364,1.915-0.55,2.899-0.55c4.438,0,8.05,3.611,8.05,8.052C68.037,70.738,64.426,74.351,59.987,74.351z M71.656,62.186   c-1.7-4.806-6.288-8.262-11.669-8.262c-0.792,0-1.577,0.076-2.354,0.229c-0.313-0.713-0.679-1.396-1.081-2.051   c-0.207-0.927-0.319-1.888-0.319-2.876c0-6.377,4.561-11.709,10.591-12.907c-0.805,2.031-1.224,4.2-1.224,6.421   c0,2.696,0.6,5.283,1.781,7.687c2.111,4.3,5.903,7.508,10.371,8.945C76,60.818,73.898,61.792,71.656,62.186z"/></g><g display="none"><path display="inline" d="M60.312,64.509H23.497c-1.194,0-2.162-0.967-2.162-2.162c0-1.192,0.968-2.161,2.162-2.161h36.814   c1.193,0,2.161,0.969,2.161,2.161C62.473,63.542,61.505,64.509,60.312,64.509z"/><path display="inline" d="M41.216,57.532H26.019c-1.194,0-2.162-0.968-2.162-2.161c0-1.195,0.968-2.164,2.162-2.164h15.197   c1.194,0,2.162,0.969,2.162,2.164C43.377,56.564,42.41,57.532,41.216,57.532z"/><path display="inline" d="M52.745,57.532h-4.334c-1.193,0-2.162-0.968-2.162-2.161c0-1.195,0.968-2.164,2.162-2.164h4.334   c1.193,0,2.161,0.969,2.161,2.164C54.906,56.564,53.938,57.532,52.745,57.532z"/><path display="inline" d="M45.425,71.582H34.551c-1.193,0-2.162-0.969-2.162-2.162c0-1.192,0.968-2.161,2.162-2.161h10.874   c1.194,0,2.162,0.969,2.162,2.161C47.586,70.613,46.619,71.582,45.425,71.582z"/><path display="inline" d="M78.23,62.958c-0.333-0.703-1.019-1.172-1.794-1.229c-4.633-0.343-8.785-3.15-10.836-7.324   c-0.886-1.807-1.335-3.751-1.335-5.782c0-2.707,0.823-5.312,2.382-7.535c0.447-0.637,0.499-1.465,0.166-2.168   c-0.333-0.702-1.035-1.174-1.809-1.232c-0.402-0.03-0.818-0.062-1.273-0.062c-8.364,0-15.374,5.908-17.081,13.769h4.459   c1.371-4.649,5.243-8.239,10.056-9.194c-0.806,2.03-1.224,4.2-1.224,6.421c0,2.697,0.599,5.282,1.779,7.687   c2.112,4.301,5.904,7.508,10.371,8.944c-2.331,1.924-5.279,3.012-8.36,3.012c-2.224,0-4.319-0.556-6.158-1.534h-6.885   c3.204,3.591,7.863,5.858,13.043,5.858c5.688,0,11.039-2.79,14.315-7.465C78.492,64.488,78.562,63.661,78.23,62.958z"/></g><g display="none"><path display="inline" d="M82.081,52.959h-10.07c-0.398-3.203-1.664-6.14-3.558-8.567l4.065-4.065c0.844-0.845,0.844-2.213,0-3.057   c-0.845-0.845-2.213-0.844-3.058,0l-4.065,4.065c-2.427-1.894-5.362-3.16-8.567-3.557v-8.63c0-1.194-0.967-2.162-2.161-2.162   c-1.193,0-2.162,0.968-2.162,2.162v8.63c-3.203,0.397-6.141,1.663-8.568,3.557l-4.064-4.065c-0.845-0.845-2.213-0.844-3.057,0   c-0.844,0.844-0.844,2.212,0,3.057l4.065,4.065c-1.892,2.426-3.16,5.361-3.56,8.562h4.37c1.037-6.227,6.46-10.99,12.977-10.99   c7.255,0,13.158,5.902,13.158,13.156c0,7.256-5.903,13.159-13.158,13.159c-0.001,0-0.003,0-0.005,0l-0.001,0.002H43.179   c2.563,2.238,5.781,3.744,9.326,4.184v8.63c0,1.193,0.969,2.161,2.162,2.161c1.194,0,2.161-0.968,2.161-2.161v-8.63   c3.205-0.398,6.141-1.663,8.567-3.558l4.065,4.066c0.423,0.422,0.976,0.633,1.528,0.633c0.555,0,1.107-0.211,1.529-0.633   c0.844-0.845,0.844-2.213,0-3.058l-4.065-4.066c1.894-2.427,3.159-5.362,3.558-8.565h10.07c1.195,0,2.162-0.969,2.162-2.164   C84.243,53.928,83.276,52.959,82.081,52.959z"/><path display="inline" d="M54.846,66.324H18.033c-1.193,0-2.162-0.968-2.162-2.162c0-1.193,0.968-2.162,2.162-2.162h36.813   c1.195,0,2.162,0.969,2.162,2.162C57.008,65.356,56.041,66.324,54.846,66.324z"/><path display="inline" d="M32.148,59.347H20.555c-1.194,0-2.162-0.97-2.162-2.162c0-1.193,0.968-2.162,2.162-2.162h11.593   c1.194,0,2.162,0.969,2.162,2.162C34.31,58.377,33.342,59.347,32.148,59.347z"/><path display="inline" d="M47.281,59.347h-7.938c-1.194,0-2.162-0.97-2.162-2.162c0-1.193,0.968-2.162,2.162-2.162h7.938   c1.194,0,2.162,0.969,2.162,2.162C49.442,58.377,48.475,59.347,47.281,59.347z"/><path display="inline" d="M38.519,73.396H26.925c-1.193,0-2.162-0.967-2.162-2.16c0-1.194,0.968-2.162,2.162-2.162h11.594   c1.193,0,2.162,0.968,2.162,2.162C40.68,72.429,39.712,73.396,38.519,73.396z"/></g><g display="none"><g display="inline"><path d="M72.497,71.502h-8.121l-0.475-1.517c-0.604-1.939-2.604-3.292-4.859-3.292c-1.195,0-2.161-0.969-2.161-2.162    c0-1.194,0.966-2.162,2.161-2.162c3.542,0,6.765,1.914,8.344,4.809h5.111c4.438,0,8.051-3.613,8.051-8.052    s-3.612-8.051-8.051-8.051c-0.984,0-1.961,0.185-2.901,0.549l-2.18,0.844l-0.671-2.238c-1.656-5.516-6.838-9.368-12.598-9.368    c-7.224,0-13.106,5.851-13.158,13.063l0.001,0.117v2.286l-2.435-0.136c-0.059-0.005-0.118-0.011-0.178-0.011    c-3.032,0-5.498,2.468-5.498,5.498c0,0.698,0.134,1.387,0.399,2.046c0.445,1.108-0.093,2.367-1.201,2.812    c-1.109,0.444-2.367-0.094-2.812-1.202c-0.472-1.174-0.71-2.404-0.71-3.656c0-4.872,3.567-8.928,8.228-9.692    c1.01-8.686,8.412-15.449,17.364-15.449c6.934,0,13.236,4.202,15.996,10.441c0.775-0.152,1.562-0.229,2.354-0.229    c6.823,0,12.376,5.552,12.376,12.375C84.873,65.95,79.32,71.502,72.497,71.502z"/></g><path display="inline" d="M52.811,66.684H37.687c-1.193,0-2.161-0.967-2.161-2.161c0-1.193,0.968-2.162,2.161-2.162h15.124   c1.194,0,2.162,0.969,2.162,2.162C54.973,65.717,54.005,66.684,52.811,66.684z"/><path display="inline" d="M24.478,59.706h-2.946c-1.194,0-2.162-0.967-2.162-2.16c0-1.194,0.968-2.162,2.162-2.162h2.946   c1.193,0,2.162,0.968,2.162,2.162C26.64,58.739,25.671,59.706,24.478,59.706z"/><path display="inline" d="M23.757,66.684h-6.549c-1.194,0-2.162-0.967-2.162-2.161c0-1.193,0.968-2.162,2.162-2.162h6.549   c1.194,0,2.162,0.969,2.162,2.162C25.918,65.717,24.951,66.684,23.757,66.684z"/><path display="inline" d="M55.437,59.706H45.365c-1.194,0-2.162-0.967-2.162-2.16c0-1.194,0.968-2.162,2.162-2.162h10.072   c1.193,0,2.162,0.968,2.162,2.162C57.599,58.739,56.63,59.706,55.437,59.706z"/><path display="inline" d="M58.951,73.758H24.298c-1.194,0-2.162-0.969-2.162-2.162s0.968-2.162,2.162-2.162h34.653   c1.193,0,2.162,0.969,2.162,2.162S60.145,73.758,58.951,73.758z"/></g><g display="none"><path display="inline" d="M70.728,72.237L52.725,54.231v-5.903c0-1.194-0.969-2.162-2.162-2.162c-1.194,0-2.162,0.968-2.162,2.162   v1.579l-4.557-4.557c-0.844-0.844-2.213-0.844-3.058,0c-0.844,0.845-0.844,2.214,0,3.058l4.579,4.579h-1.623   c-1.194,0-2.162,0.967-2.162,2.162c0,1.193,0.968,2.161,2.162,2.161h5.947l8.564,8.563c-1.089,0.177-2.191,0.269-3.306,0.269   h-0.002c-5.49,0-10.651-2.138-14.532-6.019c-5.384-5.385-7.334-13.375-5.105-20.613c1.966-0.606,4.007-0.913,6.08-0.913   c5.491,0,10.651,2.137,14.533,6.018c3.838,3.839,5.929,9.003,6.007,14.275l4.041,4.04c1.172-7.729-1.351-15.732-6.991-21.372   c-4.697-4.698-10.944-7.285-17.59-7.285c-2.921,0-5.789,0.504-8.525,1.499l-0.948,0.345l-0.345,0.948   c-3.293,9.057-1.022,19.306,5.786,26.116c4.697,4.697,10.944,7.284,17.589,7.284h0.002c2.353,0,4.672-0.333,6.915-0.98l5.809,5.808   c0.422,0.424,0.975,0.634,1.528,0.634c0.553,0,1.105-0.21,1.527-0.634C71.572,74.448,71.572,73.081,70.728,72.237z"/></g><g display="none"><g display="inline"><path d="M66.497,32.751H33.584c-1.194,0-2.162-0.968-2.162-2.162s0.968-2.162,2.162-2.162h32.913c1.194,0,2.162,0.968,2.162,2.162    S67.691,32.751,66.497,32.751z"/><path d="M60.732,39.765H35.026c-1.194,0-2.162-0.969-2.162-2.163c0-1.193,0.968-2.161,2.162-2.161h25.707    c1.193,0,2.162,0.968,2.162,2.161C62.895,38.796,61.926,39.765,60.732,39.765z"/><path d="M57.13,46.778H39.349c-1.194,0-2.162-0.968-2.162-2.162s0.968-2.162,2.162-2.162H57.13c1.192,0,2.161,0.968,2.161,2.162    S58.322,46.778,57.13,46.778z"/><path d="M55.688,53.789H45.114c-1.194,0-2.162-0.968-2.162-2.161c0-1.194,0.968-2.162,2.162-2.162h10.574    c1.193,0,2.162,0.968,2.162,2.162C57.851,52.821,56.882,53.789,55.688,53.789z"/><path d="M54.968,60.804h-7.692c-1.194,0-2.162-0.968-2.162-2.162c0-1.195,0.968-2.162,2.162-2.162h7.692    c1.194,0,2.162,0.967,2.162,2.162C57.13,59.836,56.162,60.804,54.968,60.804z"/><path d="M51.365,67.815h-6.251c-1.194,0-2.162-0.967-2.162-2.161s0.968-2.162,2.162-2.162h6.251c1.193,0,2.161,0.968,2.161,2.162    S52.559,67.815,51.365,67.815z"/><path d="M47.762,74.829h-4.81c-1.193,0-2.162-0.968-2.162-2.161c0-1.195,0.968-2.164,2.162-2.164h4.81    c1.193,0,2.162,0.969,2.162,2.164C49.923,73.861,48.955,74.829,47.762,74.829z"/><path d="M44.158,81.808h-1.927c-1.193,0-2.161-0.969-2.161-2.164c0-1.192,0.968-2.161,2.161-2.161h1.927    c1.194,0,2.163,0.969,2.163,2.161C46.321,80.839,45.353,81.808,44.158,81.808z"/></g></g><g display="none"><path display="inline" d="M50.048,61.158c-1.194,0-2.162-0.968-2.162-2.161v-7.008c0-1.193,0.968-2.162,2.162-2.162   s2.162,0.968,2.162,2.162v7.008C52.21,60.19,51.242,61.158,50.048,61.158z"/><path display="inline" d="M50.048,68.626c-1.194,0-2.162-0.968-2.162-2.161v-0.804c0-1.192,0.968-2.16,2.162-2.16   s2.162,0.968,2.162,2.16v0.804C52.21,67.658,51.242,68.626,50.048,68.626z"/><path display="inline" d="M69.543,74.382c-0.002,0-0.005,0-0.007,0H30.561c-0.77,0-1.482-0.409-1.869-1.074   c-0.387-0.667-0.391-1.486-0.01-2.156l19.487-34.243c0.384-0.675,1.102-1.093,1.879-1.093c0.776,0,1.495,0.417,1.878,1.093   l19.407,34.1c0.234,0.346,0.37,0.763,0.37,1.212C71.704,73.415,70.736,74.382,69.543,74.382z M34.278,70.058h31.54l-15.77-27.709   L34.278,70.058z"/></g><g display="none"><path display="inline" d="M49.874,53.232c-1.193,0-2.161-0.969-2.161-2.163v-7.006c0-1.194,0.968-2.163,2.161-2.163   c1.194,0,2.162,0.968,2.162,2.163v7.006C52.036,52.264,51.068,53.232,49.874,53.232z"/><path display="inline" d="M49.874,60.7c-1.193,0-2.161-0.968-2.161-2.162v-0.802c0-1.195,0.968-2.163,2.161-2.163   c1.194,0,2.162,0.968,2.162,2.163v0.802C52.036,59.732,51.068,60.7,49.874,60.7z"/><path display="inline" d="M49.874,74.382c-0.777,0-1.494-0.416-1.879-1.093L28.507,39.047c-0.38-0.669-0.377-1.491,0.011-2.156   c0.387-0.665,1.099-1.075,1.868-1.075H69.36c0.771,0,1.482,0.41,1.869,1.075c0.387,0.666,0.391,1.487,0.012,2.156L51.753,73.289   C51.368,73.966,50.651,74.382,49.874,74.382z M34.104,40.14l15.77,27.711l15.77-27.711H34.104z"/></g><g display="none"><g display="inline"><path d="M71.286,71.009l-19.406-34.1c-0.384-0.675-1.102-1.093-1.879-1.093c-0.777,0-1.494,0.417-1.878,1.093L28.635,71.151    c-0.381,0.67-0.377,1.489,0.01,2.156c0.387,0.665,1.099,1.074,1.869,1.074h38.975c0.002,0,0.004,0,0.007,0    c1.193,0,2.16-0.967,2.16-2.161C71.656,71.771,71.521,71.354,71.286,71.009z M34.231,70.058L50,42.349l15.772,27.709H34.231z"/><path d="M47.762,55.283v1.281l-0.837-0.527c-1.011-0.636-2.345-0.331-2.98,0.68c-0.636,1.012-0.331,2.346,0.68,2.98l1.236,0.778    l-1.236,0.776c-1.011,0.636-1.316,1.97-0.68,2.981c0.411,0.652,1.113,1.011,1.832,1.011c0.393,0,0.791-0.106,1.148-0.331    l0.837-0.527v1.281c0,1.194,0.968,2.162,2.162,2.162c1.194,0,2.162-0.968,2.162-2.162v-1.281l0.838,0.527    c0.357,0.225,0.755,0.331,1.147,0.331c0.719,0,1.422-0.358,1.833-1.011c0.636-1.012,0.331-2.346-0.679-2.981l-1.238-0.776    l1.238-0.778c1.01-0.635,1.314-1.969,0.679-2.98c-0.635-1.011-1.969-1.315-2.98-0.68l-0.838,0.527v-1.281    c0-1.193-0.968-2.162-2.162-2.162C48.73,53.121,47.762,54.09,47.762,55.283z"/></g></g><g display="none"><g display="inline"><path d="M71.277,36.891c-0.387-0.665-1.098-1.075-1.868-1.075H30.434c-0.769,0-1.481,0.41-1.868,1.075    c-0.387,0.666-0.391,1.487-0.01,2.156l19.488,34.242c0.385,0.677,1.102,1.093,1.879,1.093s1.495-0.416,1.879-1.093l19.487-34.242    C71.668,38.378,71.664,37.557,71.277,36.891z M49.922,67.851L34.152,40.14h31.54L49.922,67.851z"/><path d="M44.545,48.889l1.236,0.777l-1.236,0.777c-1.011,0.635-1.316,1.97-0.681,2.98c0.411,0.652,1.114,1.012,1.833,1.012    c0.393,0,0.791-0.106,1.147-0.332l0.838-0.524v1.278c0,1.195,0.968,2.162,2.162,2.162c1.193,0,2.162-0.967,2.162-2.162v-1.278    l0.837,0.524c0.357,0.226,0.756,0.332,1.148,0.332c0.719,0,1.422-0.359,1.833-1.012c0.634-1.011,0.331-2.346-0.682-2.98    l-1.235-0.777l1.235-0.777c1.013-0.635,1.315-1.97,0.682-2.981c-0.636-1.01-1.97-1.315-2.981-0.68l-0.837,0.527v-1.28    c0-1.194-0.969-2.163-2.162-2.163c-1.194,0-2.162,0.969-2.162,2.163v1.28l-0.838-0.526c-1.01-0.636-2.345-0.331-2.98,0.68    C43.229,46.919,43.534,48.254,44.545,48.889z"/></g></g><g display="none"><path display="inline" d="M35.061,79.683c-1.194,0-2.162-0.968-2.162-2.162V31.339c0-1.194,0.968-2.162,2.162-2.162   c1.193,0,2.161,0.968,2.161,2.162v46.181C37.222,78.715,36.254,79.683,35.061,79.683z"/><path display="inline" d="M71.321,33.882l-15.748-2.553v-0.07h-0.435l-12.709-2.061c-0.625-0.101-1.264,0.077-1.747,0.488   c-0.483,0.411-0.761,1.012-0.761,1.646v16.606c0,0.625,0.27,1.218,0.741,1.629c0.396,0.345,0.901,0.532,1.421,0.532   c0.098,0,0.195-0.006,0.293-0.02l28.894-3.963c1.069-0.147,1.867-1.062,1.867-2.143v-7.958   C73.138,34.956,72.369,34.052,71.321,33.882z M60.137,36.449v6.831l-4.563,0.625v-8.197L60.137,36.449z M45.716,34.111l5.013,0.812   v9.646l-5.013,0.688V34.111z M68.814,42.089l-3.837,0.526v-5.383l3.837,0.622V42.089z"/><path display="inline" d="M41.171,81.269H28.879c-1.194,0-2.162-0.968-2.162-2.161c0-1.194,0.968-2.162,2.162-2.162h12.292   c1.194,0,2.162,0.968,2.162,2.162C43.333,80.301,42.365,81.269,41.171,81.269z"/></g><g display="none"><path display="inline" d="M69.104,55.07l-9.332-12.942l0.05-0.05l-0.306-0.306l-7.531-10.445c-0.37-0.514-0.948-0.839-1.58-0.89   c-0.634-0.052-1.254,0.178-1.703,0.626l-8.167,8.167v-8.251c0-1.194-0.968-2.162-2.162-2.162s-2.162,0.968-2.162,2.162v45.607   h-4.02c-1.193,0-2.161,0.967-2.161,2.161c0,1.193,0.968,2.162,2.161,2.162h12.293c1.194,0,2.162-0.969,2.162-2.162   c0-1.194-0.968-2.161-2.162-2.161h-3.95V48.601l19.877,15.083c0.391,0.296,0.85,0.439,1.308,0.439c0.556,0,1.11-0.215,1.529-0.632   l5.628-5.63C69.628,57.113,69.723,55.931,69.104,55.07z M59.379,48.976l-4.831,4.831l-3.671-2.786l5.797-5.796L59.379,48.976z    M50.835,37.125l2.97,4.12l-6.821,6.822l-4.031-3.059L50.835,37.125z M61.525,59.102L58.44,56.76l3.807-3.807l2.272,3.153   L61.525,59.102z"/></g><g display="none"><path display="inline" d="M59.819,35.097c-0.411-0.482-1.015-0.761-1.647-0.761h-6.104v-3.357c0-1.194-0.968-2.162-2.162-2.162   s-2.162,0.968-2.162,2.162v3.357h-6.178c-0.625,0-1.219,0.27-1.629,0.741c-0.411,0.471-0.597,1.096-0.513,1.715l3.963,28.893   c0.146,1.07,1.061,1.869,2.142,1.869h2.215v9.032h-3.985c-1.194,0-2.162,0.967-2.162,2.161c0,1.193,0.968,2.162,2.162,2.162h12.293   c1.192,0,2.161-0.969,2.161-2.162c0-1.194-0.969-2.161-2.161-2.161h-3.985v-9.032h1.421c1.062,0,1.965-0.771,2.135-1.817   l2.553-15.75h0.07v-0.43l2.061-12.713C60.408,36.219,60.229,35.58,59.819,35.097z M55.394,40.131l-0.812,5.013h-9.647l-0.688-5.013   H55.394z M51.648,63.229h-4.233l-0.526-3.837h5.381L51.648,63.229z M53.056,54.551h-6.831l-0.627-4.564h8.198L53.056,54.551z"/></g><g display="none"><path display="inline" d="M61.896,32.187c-11.209,0-21.301,4.859-28.29,12.579c-2.431-1.265-5.168-1.973-8.014-1.973   c-8.953,0-16.355,6.764-17.365,15.449C3.567,59.006,0,63.062,0,67.935c0,1.253,0.239,2.483,0.711,3.657l0.546,1.355h29.23   c2.256,0,4.255,1.354,4.86,3.292l0.475,1.517h8.12c6.824,0,12.375-5.553,12.375-12.376c0-2.236-0.6-4.335-1.643-6.148   c2.08-1.355,4.561-2.147,7.223-2.147c7.316,0,13.269,5.952,13.269,13.269c0,1.193,0.968,2.162,2.161,2.162   c1.194,0,2.162-0.969,2.162-2.162c0-9.7-7.891-17.592-17.592-17.592c-3.719,0-7.168,1.163-10.013,3.139   c-1.692-1.421-3.768-2.397-6.046-2.75c4.209-3.935,9.854-6.352,16.059-6.352c12.987,0,23.555,10.567,23.555,23.555   c0,1.193,0.968,2.162,2.162,2.162s2.162-0.969,2.162-2.162c0-15.372-12.507-27.879-27.879-27.879   c-8.334,0-15.823,3.678-20.933,9.495c-0.977-1.795-2.256-3.391-3.762-4.728c6.179-6.599,14.962-10.731,24.695-10.731   c18.659,0,33.841,15.182,33.841,33.842c0,1.193,0.968,2.162,2.162,2.162c1.193,0,2.162-0.969,2.162-2.162   C100.062,49.308,82.939,32.187,61.896,32.187z M38.189,56.483l0.671,2.237l2.178-0.843c0.944-0.364,1.92-0.55,2.903-0.55   c4.439,0,8.051,3.613,8.051,8.052c0,4.439-3.612,8.052-8.051,8.052H38.83c-1.58-2.894-4.802-4.808-8.343-4.808H4.368   c-0.029-0.229-0.044-0.459-0.044-0.689c0-3.032,2.467-5.5,5.499-5.5c0.06,0,0.119,0.006,0.178,0.01l2.435,0.138v-2.286   l-0.001-0.116c0.052-7.212,5.934-13.064,13.158-13.064C31.354,47.116,36.533,50.968,38.189,56.483z"/></g></svg>